<?xml version="1.0" standalone="no"?><!DOCTYPE svg PUBLIC "-//W3C//DTD SVG 1.1//EN" "http://www.w3.org/Graphics/SVG/1.1/DTD/svg11.dtd"><svg t="1666013546620" class="icon" viewBox="0 0 1024 1024" version="1.1" xmlns="http://www.w3.org/2000/svg" p-id="1421" xmlns:xlink="http://www.w3.org/1999/xlink" width="200" height="200"><path d="M895.738578 6.395643H205.009138c-63.95643 6.395643-115.121573 51.165144-115.121574 115.121573v57.560787C57.909349 191.869289 32.326777 223.847504 32.326777 255.825719s25.582572 63.95643 51.165144 76.747715V447.695008c-25.582572 12.791286-51.165144 38.373858-51.165144 76.747715 0 31.978215 25.582572 63.95643 51.165144 76.747716v115.121573c-31.978215 12.791286-51.165144 44.769501-51.165144 76.747716s25.582572 63.95643 51.165144 76.747716v57.560786c0 57.560787 57.560787 95.934645 115.121574 95.934645H895.738578c51.165144 6.395643 95.934645-31.978215 95.934645-83.143359V121.517216c0-57.560787-38.373858-115.121573-95.934645-115.121573z m-185.473646 454.090651c12.791286 0 25.582572 12.791286 25.582572 25.582572s-12.791286 25.582572-25.582572 25.582571H563.165144v76.747716H703.869289c12.791286 0 25.582572 12.791286 25.582572 25.582572s-12.791286 25.582572-25.582572 25.582572H563.165144v89.539001c0 12.791286-12.791286 25.582572-25.582572 25.582572s-25.582572-12.791286-25.582572-25.582572V639.564297H390.482784c-12.791286 0-25.582572-12.791286-25.582572-25.582572s12.791286-25.582572 25.582572-25.582572H512V511.651437H390.482784c-19.186929 0-25.582572-12.791286-25.582572-25.582571s12.791286-25.582572 25.582572-25.582572h115.121573L364.900212 319.782148c-6.395643-6.395643-12.791286-19.186929 0-31.978214s25.582572-12.791286 38.373858 0l140.704145 140.704145 140.704145-140.704145c12.791286-12.791286 25.582572-12.791286 38.373858 0 12.791286 6.395643 12.791286 25.582572 0 31.978214L575.95643 460.486294h134.308502z" fill="#409EFF" p-id="1422"></path></svg>